<svg width="1341" height="295" viewBox="0 0 1341 295" fill="none" xmlns="http://www.w3.org/2000/svg">
<path d="M239.243 53.2384H272.485V228H239.243V53.2384Z" fill="white"/>
<path d="M310.991 88.4351C305.613 88.4351 301.132 86.7242 297.548 83.3023C294.126 79.8804 292.415 75.4808 292.415 70.1035C292.415 64.7262 294.126 60.3266 297.548 56.9047C301.132 53.4828 305.613 51.7719 310.991 51.7719C316.368 51.7719 320.768 53.4828 324.19 56.9047C327.774 60.3266 329.567 64.7262 329.567 70.1035C329.567 75.4808 327.774 79.8804 324.19 83.3023C320.768 86.7242 316.368 88.4351 310.991 88.4351ZM294.37 102.612H327.611V228H294.37V102.612Z" fill="white"/>
<path d="M404.27 270.774C387.324 270.774 373.717 267.352 363.452 260.508C353.349 253.664 347.401 244.05 345.609 231.666H378.606C381.865 240.954 390.257 245.598 403.781 245.598C422.357 245.598 431.645 236.881 431.645 219.445V205.758H430.912C426.838 210.32 422.194 213.905 416.98 216.512C411.766 219.119 405.492 220.423 398.16 220.423C388.709 220.423 379.747 218.06 371.273 213.335C362.8 208.446 355.956 201.439 350.742 192.314C345.527 183.189 342.92 172.598 342.92 160.54C342.92 148.318 345.202 137.564 349.764 128.276C354.327 118.988 360.682 111.818 368.829 106.767C377.139 101.715 386.59 99.1897 397.182 99.1897C412.336 99.1897 423.905 104.73 431.89 115.81H432.379V102.612H464.398V218.468C464.398 234.762 459.428 247.472 449.488 256.597C439.385 266.048 424.313 270.774 404.27 270.774ZM403.781 193.781C413.721 193.781 421.135 190.603 426.024 184.248C430.912 177.894 433.356 169.746 433.356 159.806C433.356 150.029 430.749 141.964 425.535 135.609C420.483 129.091 413.151 125.832 403.537 125.832C395.064 125.832 388.22 128.928 383.005 135.12C377.954 141.312 375.428 149.622 375.428 160.051C375.428 170.642 377.954 178.953 383.005 184.982C388.22 190.848 395.145 193.781 403.781 193.781Z" fill="white"/>
<path d="M519.043 53.2384V118.988H519.777C524.502 112.144 529.635 107.174 535.175 104.078C540.878 100.819 547.885 99.1897 556.196 99.1897C564.669 99.1897 572.164 101.227 578.682 105.3C585.363 109.211 590.496 114.751 594.081 121.921C597.666 128.928 599.458 136.994 599.458 146.119V228H566.217V151.007C566.217 144.163 564.261 138.623 560.351 134.386C556.603 130.15 551.307 128.031 544.463 128.031C537.131 128.031 531.02 130.72 526.132 136.097C521.406 141.475 519.043 148.4 519.043 156.873V228H485.802V53.2384H519.043Z" fill="white"/>
<path d="M661.557 228.244C651.943 228.244 643.877 225.963 637.359 221.401C630.841 216.675 627.582 208.935 627.582 198.181V124.61H610.228V102.612H627.582V63.5041H660.09V102.612H681.599V124.61H660.09V191.092C660.09 199.403 664.245 203.558 672.556 203.558L682.332 203.313V227.756C676.792 228.081 669.867 228.244 661.557 228.244Z" fill="white"/>
<path d="M750.75 231.666C732.825 231.666 718.812 227.756 708.709 219.934C698.606 211.95 693.066 201.114 692.088 187.426H722.885C724.026 194.433 726.959 199.647 731.685 203.069C736.41 206.491 742.602 208.202 750.261 208.202C757.593 208.202 763.215 206.898 767.126 204.291C771.2 201.684 773.236 198.181 773.236 193.781C773.236 189.218 771.362 186.041 767.615 184.248C764.03 182.293 757.268 180.419 747.328 178.627C734.455 176.183 724.352 173.494 717.019 170.561C709.85 167.628 704.472 163.717 700.888 158.829C697.466 153.94 695.755 147.422 695.755 139.275C695.755 126.239 700.48 116.299 709.931 109.455C719.545 102.612 731.848 99.1897 746.839 99.1897C762.971 99.1897 775.599 102.937 784.724 110.433C794.012 117.766 799.308 127.869 800.612 140.741H770.548C769.896 134.223 767.533 129.579 763.46 126.809C759.386 123.876 753.683 122.41 746.35 122.41C739.669 122.41 734.373 123.632 730.463 126.076C726.715 128.52 724.841 131.942 724.841 136.342C724.841 140.578 727.041 143.674 731.44 145.63C736.003 147.422 742.847 149.052 751.972 150.518C764.682 152.8 774.703 155.488 782.036 158.584C789.368 161.517 794.745 165.591 798.167 170.805C801.752 175.857 803.545 182.7 803.545 191.337C803.545 203.721 798.656 213.579 788.879 220.912C779.265 228.081 766.556 231.666 750.75 231.666Z" fill="white"/>
<path d="M850.56 102.612V118.255H851.293C860.581 105.545 872.884 99.1897 888.201 99.1897C899.118 99.1897 908.651 101.96 916.798 107.5C925.108 113.04 931.463 120.862 935.863 130.965C940.425 140.904 942.707 152.392 942.707 165.428C942.707 178.79 940.425 190.522 935.863 200.625C931.3 210.565 924.945 218.223 916.798 223.6C908.651 228.978 899.2 231.666 888.445 231.666C872.15 231.666 860.092 225.719 852.271 213.824H851.782V269.063H818.54V102.612H850.56ZM881.357 204.047C889.83 204.047 896.511 200.706 901.399 194.025C906.451 187.344 908.977 178.138 908.977 166.406C908.977 153.859 906.614 144 901.888 136.831C897.163 129.661 889.912 126.076 880.135 126.076C870.195 126.076 862.862 129.824 858.137 137.319C853.411 144.652 851.049 154.348 851.049 166.406C851.049 177.975 853.656 187.182 858.87 194.025C864.084 200.706 871.58 204.047 881.357 204.047Z" fill="white"/>
<path d="M1017.08 231.666C1003.56 231.666 991.906 228.815 982.129 223.112C972.352 217.245 964.857 209.261 959.642 199.158C954.591 189.055 952.065 177.731 952.065 165.184C952.065 152.8 954.672 141.638 959.887 131.698C965.101 121.595 972.352 113.692 981.64 107.989C991.091 102.123 1001.85 99.1897 1013.9 99.1897C1033.62 99.1897 1048.86 106.034 1059.61 119.721C1070.37 133.409 1075.74 151.74 1075.74 174.716H984.818C986.121 184.656 989.462 192.396 994.839 197.936C1000.22 203.313 1007.55 206.002 1016.84 206.002C1029.06 206.002 1037.12 200.869 1041.03 190.603H1073.79C1071.34 202.336 1065.15 212.113 1055.21 219.934C1045.27 227.756 1032.56 231.666 1017.08 231.666ZM1041.03 151.74C1040.55 143.756 1037.86 137.319 1032.97 132.431C1028.08 127.38 1021.89 124.854 1014.39 124.854C998.261 124.854 988.566 133.816 985.307 151.74H1041.03Z" fill="white"/>
<path d="M1150.03 231.666C1136.51 231.666 1124.86 228.815 1115.08 223.112C1105.3 217.245 1097.81 209.261 1092.59 199.158C1087.54 189.055 1085.02 177.731 1085.02 165.184C1085.02 152.8 1087.62 141.638 1092.84 131.698C1098.05 121.595 1105.3 113.692 1114.59 107.989C1124.04 102.123 1134.8 99.1897 1146.86 99.1897C1166.57 99.1897 1181.81 106.034 1192.56 119.721C1203.32 133.409 1208.69 151.74 1208.69 174.716H1117.77C1119.07 184.656 1122.41 192.396 1127.79 197.936C1133.17 203.313 1140.5 206.002 1149.79 206.002C1162.01 206.002 1170.08 200.869 1173.99 190.603H1206.74C1204.3 202.336 1198.1 212.113 1188.16 219.934C1178.22 227.756 1165.51 231.666 1150.03 231.666ZM1173.99 151.74C1173.5 143.756 1170.81 137.319 1165.92 132.431C1161.03 127.38 1154.84 124.854 1147.35 124.854C1131.21 124.854 1121.52 133.816 1118.26 151.74H1173.99Z" fill="white"/>
<path d="M1271.01 231.666C1260.58 231.666 1251.29 228.978 1243.15 223.6C1235.16 218.223 1228.97 210.565 1224.57 200.625C1220.17 190.522 1217.97 178.79 1217.97 165.428C1217.97 152.555 1220.25 141.149 1224.81 131.209C1229.38 121.106 1235.73 113.285 1243.88 107.744C1252.03 102.041 1261.23 99.1897 1271.5 99.1897C1287.14 99.1897 1298.95 105.382 1306.94 117.766H1307.67V53.2384H1340.91V228H1308.89V211.624H1308.41C1304.66 217.816 1299.61 222.704 1293.25 226.289C1286.9 229.874 1279.48 231.666 1271.01 231.666ZM1278.34 203.802C1288.12 203.802 1295.53 200.462 1300.58 193.781C1305.8 187.1 1308.41 177.894 1308.41 166.161C1308.41 139.438 1298.71 126.076 1279.32 126.076C1270.36 126.076 1263.51 129.661 1258.79 136.831C1254.06 144 1251.7 153.533 1251.7 165.428C1251.7 177.649 1253.98 187.1 1258.54 193.781C1263.27 200.462 1269.87 203.802 1278.34 203.802Z" fill="white"/>
<path d="M177 177L118 177L118 117.5L177 117.5L177 177Z" fill="#34FFFF"/>
<path d="M118 177L59 236.5L59 176.5L118 117.5L118 177Z" fill="#3FE8FF"/>
<path d="M59 294.5L59 236.5L118 177L177 177L59 294.5Z" fill="#AFFFFF"/>
<rect y="117.5" width="59" height="59" fill="#753EF4"/>
<path d="M59 117.5L118 58V117.5L59 176.5V117.5Z" fill="#B170FF"/>
<path d="M118 0V58L59 117.5H0L118 0Z" fill="#9452FA"/>
</svg>
